<svg viewBox="0 0 384.75 384" xmlns="http://www.w3.org/2000/svg">
    <path d="M319.75.75c.61.38,1.19.79,1.82,1.13,4.83,2.59,7.32,7.61,6.16,12.46a11.23,11.23,0,0,1-11.08,8.88c-6.75.1-13.49,0-20.33,0,0,.53-.07.94.08,1.21,13.08,23.37,11.2,46.66-.34,69.89-10.06,20.28-24.31,37.52-40,53.56-14.12,14.49-28.94,28.31-43.45,42.42-.89.87-1.8,1.71-3,2.82l11.87,11c21.45,19.91,42.53,40.18,59.82,64,10.34,14.23,19,29.34,22.67,46.83a63.52,63.52,0,0,1-6.68,44.58c-.4.74-.71,1.52-1.27,2.73h18.69c7.13,0,11.58,3.07,13,8.91,1.26,5.31-1.41,9.92-7.55,13-.19.09-.3.36-.44.55H66.25c-.49-.32-1-.68-1.49-.95-5.08-2.65-7.68-7.67-6.51-12.64,1.27-5.37,5.65-8.84,11.47-8.89,6.58-.07,13.17,0,19.73,0-2.29-5.82-4.9-11.22-6.56-16.91-5-17.32-1.71-33.86,5.57-49.87C96.72,277.29,108.33,261.28,122,247c16.36-17.19,33.61-33.52,50.49-50.21,1.15-1.13,2.37-2.19,4.45-4.1a27.51,27.51,0,0,1-3.54-2.36C152,170.51,130.7,150.63,112.23,128,101,114.3,91.09,99.81,85.09,83,78,63.11,78.9,43.77,89.29,25.13a20.24,20.24,0,0,0,.77-1.89c-7.12,0-13.92.08-20.71,0A11,11,0,0,1,58.62,15.4,10.73,10.73,0,0,1,62,3.56,44.6,44.6,0,0,1,66.25.75ZM105.46,72.08c1.18-.12,2.17-.16,3.13-.35,30-5.78,59.18-2.19,87.48,8.89,21,8.23,42.6,12.7,65.19,10.15,14.9-1.68,11.49,1.18,17.46-13,8.12-19.32,4.74-36.9-9.58-52.22a7.32,7.32,0,0,0-4.72-2.2q-71.42-.16-142.84,0a6,6,0,0,0-3.68,1.17C105,35.61,99.61,56.09,105.46,72.08ZM275.89,351.5c6.59-10.31,8.61-21.23,6-33-3.12-14-10.35-25.88-18.71-37.2-16.79-22.74-37.23-42.07-57.73-61.34-.21-.19-.63-.17-1.2-.31,0,6.29.15,12.41,0,18.51A11.19,11.19,0,0,1,193,249a11.32,11.32,0,0,1-11.2-10.88c-.1-2,0-4,0-6V218.86c-4,3.75-7.26,6.81-10.51,9.9-17.3,16.47-34.23,33.29-48.45,52.59-8.34,11.33-15.59,23.25-18.69,37.21-2.6,11.74-.61,22.64,6,32.94,16.49-28.43,40.62-46.6,71.64-56.34,0-3.91-.05-7.9,0-11.89.1-6.72,4.8-11.67,11.08-11.76,6.43-.09,11.29,4.92,11.4,11.82.06,4,0,8,0,11.8C235.35,304.91,259.43,323.14,275.89,351.5ZM256.08,114.12c-1.3-.1-1.88-.19-2.47-.18-23.33.56-45.58-4.29-67.2-12.88a133,133,0,0,0-55-9.43c-5.27.21-10.51,1-16.65,1.64,21.69,33.2,50.43,58.38,78.2,84.61C215,157.44,236.74,137.51,256.08,114.12Zm-126.33,248h125.5a3.93,3.93,0,0,0-.14-1.21,41.45,41.45,0,0,0-2.19-3.92c-13-19.41-30.95-32.28-53.09-39.42a23.11,23.11,0,0,0-14.38.22,100.13,100.13,0,0,0-47.09,31.93C135.3,353.36,132.87,357.56,129.75,362.1Z" transform="translate(-0.25 -0.75)"/>
</svg>