<svg viewBox="0 0 384.75 384" xmlns="http://www.w3.org/2000/svg">
    <defs>
        <style>.cls-1{fill:#fff;}</style>
    </defs>
    <path class="cls-1" d="M84.25,384.75H.25V.75h168a13.53,13.53,0,0,1-2.06.7,43.72,43.72,0,0,0-26.45,15.09c-8.63,10.15-11.69,22-10.43,35.19,9.92.66,19.49.17,27.82-5A49.31,49.31,0,0,1,186.28,39c7.8.34,13.68-3.49,17.25-10.43,1-1.94,2.17-2.34,4.08-2.29,3.57.11,7.14,0,10.63,0V13.52c-3.93,0-7.55.08-11.17,0-1,0-2.5-.38-2.8-1-2.86-6.27-8-9.69-14.27-11.68H385v384H301.75c0-21.5,0-43,.12-64.49a8.72,8.72,0,0,1,2.24-5.45c9.59-9.86,19.4-19.49,29.08-29.25,4.66-4.7,9.56-9.22,13.72-14.34,12.21-15,4.9-38.85-13.53-44.75-12.23-3.92-22.56-.61-31.44,8.29q-35.37,35.42-70.85,70.72a9.24,9.24,0,0,1-5.8,2.4c-13.74.21-27.49.11-41.24.11h-3.33c-.58-5.15-.54-9.87-1.72-14.27-5.1-19.08-22.22-26.58-40.27-23.64a10.87,10.87,0,0,0-9.3,9.62c-1.05,8-.76,16,3.11,23.4.78,1.49,1.65,2.92,2.78,4.91H84.25Zm63.47-217.86c2.13-2,4.2-3.49,5.74-5.42,3.31-4.15,7.49-8.09,9.29-12.88,5.82-15.49-4.77-31.08-21.36-32.44-1.76-.14-3.18-.18-4-2.45-5.16-15.1-15.12-22.39-31.17-23.44A10.38,10.38,0,0,1,100.69,88C92.87,81.49,84,79,74.19,81.59c-21.29,5.68-28.79,30-14.79,47a11.61,11.61,0,0,1,2.5,6.21c.82,12.81,6,23.09,17.88,28.57,5.25,2.41,7.64,5,9,10.91,4.43,18.76,26.51,24.4,40.82,11,3.07-2.88,5.86-6.05,8.95-9.26l20.33,20.67,9.72-9.16C161.86,180.86,155,174.12,147.72,166.89Zm57.76,31.89c-17.54,3.06-25.32,10.13-25.23,22.91s7.76,19.55,25.56,22.7v24.87h44.95v-25c16.73-2.05,25.22-9.66,25.43-22.44s-8-20.22-25.18-23c-4.79-16-11.5-22.3-23.52-21.93C215.91,177.24,209,184.07,205.48,198.78Zm6.76-159.49c0,3.67-.11,7.13,0,10.59.1,2.11-.7,3-2.7,3.71-14,5-21.4,17.45-19.4,32.41q3.7,27.65,7.38,55.29c1.53,11.43,10,19.33,20.72,19.34,11.47,0,19.7-7.54,21.29-19.42q3.6-26.91,7.27-53.8c2.25-16.49-4.37-27.92-19.61-34.11a4.37,4.37,0,0,1-2.07-3.19c-.27-3.55-.1-7.14-.1-10.82ZM65.06,295.4c3.34-.35,6.78-.31,10-1.12a28.69,28.69,0,0,0,15.1-46.6c-3.56-4.26-5.79-8.7-6.2-14.4-.59-8.16-6.71-13.83-14.89-14.84-10.84-1.33-18.79,2.33-22,10.19a9.7,9.7,0,0,0-1,3.57c.11,6.71-3.28,11.64-7.22,16.73-7.2,9.31-7.87,19.86-2.81,30.32C41.86,291.18,52.25,295.56,65.06,295.4ZM333.74,122.57c-.85-.13-1.22-.23-1.59-.24-1.37,0-2.75-.07-4.12,0-20,.85-34.37,10-42.23,28.67-4,9.52-3.36,19.58-3.08,29.55.21,7.49,4,12.87,10.5,16.6a5.29,5.29,0,0,1,2.1,3.68c.28,3.57.1,7.17.1,11.19,3.33,0,6.18-.16,9,0s4.18-.57,3.87-3.7a36.79,36.79,0,0,1,0-7.85,5,5,0,0,1,2-3.37c7.26-4.07,11-10.31,10.59-18.46a47.25,47.25,0,0,1,7.52-28C333.73,142.2,334.21,132.51,333.74,122.57ZM103.62,238.82a65.85,65.85,0,0,0,0,6.74c.53,5.26,4.41,10,9.52,10.71,7.86,1,15.75.93,23.1-2.74,15.4-7.69,19.89-22,18-37.35a12,12,0,0,0-10.77-10.47C119.87,203,103.51,217.57,103.62,238.82ZM159,103.17c.38,0,1.87-.07,3.36-.22,10.3-1,17.66-8.72,17.88-18.66S173.05,66.08,162.61,65a47.92,47.92,0,0,0-11.54.24c-9.72,1.39-16.86,11.3-15.45,21C137.22,97.16,145.1,103.17,159,103.17Zm120.58,25.76c1.85-.16,3.72-.26,5.57-.5a19,19,0,0,0-.6-37.77,55.07,55.07,0,0,0-10.43,0A18.85,18.85,0,0,0,258,115.17C260.75,124.21,268,128.81,279.53,128.93Z" transform="translate(-0.25 -0.75)"/>
    <path d="M84.25,384.75V308h51.07c-1.13-2-2-3.42-2.78-4.91-3.87-7.41-4.16-15.42-3.11-23.4a10.87,10.87,0,0,1,9.3-9.62c18.05-2.94,35.17,4.56,40.27,23.64,1.18,4.4,1.14,9.12,1.72,14.27h3.33c13.75,0,27.5.1,41.24-.11a9.24,9.24,0,0,0,5.8-2.4q35.53-35.24,70.85-70.72c8.88-8.9,19.21-12.21,31.44-8.29,18.43,5.9,25.74,29.71,13.53,44.75-4.16,5.12-9.06,9.64-13.72,14.34-9.68,9.76-19.49,19.39-29.08,29.25a8.72,8.72,0,0,0-2.24,5.45c-.16,21.5-.11,43-.12,64.49Zm12.88-13H288.74V321.1H97.13Zm150.28-63.89c1.56.07,2.64.16,3.72.17,12.75,0,25.5.11,38.24-.11a9.29,9.29,0,0,0,5.76-2.48c9.42-9.13,18.64-18.48,27.92-27.76,4.15-4.16,8.4-8.22,12.43-12.49,6.91-7.32,6.28-18.22-1.25-24.18-6.57-5.19-15.48-4.8-21.79,1.47q-31.93,31.69-63.66,63.61A21.8,21.8,0,0,0,247.41,307.82Zm-105.26-25.1c-2.74,18.73,11.24,27.66,25,24.71C169,290.55,158.77,280.32,142.15,282.72Z" transform="translate(-0.25 -0.75)"/>
    <path d="M190,.75c6.31,2,11.41,5.41,14.27,11.68.3.66,1.83,1,2.8,1,3.62.13,7.24,0,11.17,0V26.3c-3.49,0-7.06.08-10.63,0-1.91-.05-3.09.35-4.08,2.29C200,35.5,194.08,39.33,186.28,39a49.31,49.31,0,0,0-29.15,7.71c-8.33,5.2-17.9,5.69-27.82,5-1.26-13.23,1.8-25,10.43-35.19A43.72,43.72,0,0,1,166.19,1.45a13.53,13.53,0,0,0,2.06-.7ZM142.65,38.84c3.45-1.39,6.4-2.11,8.83-3.65a56.77,56.77,0,0,1,34.11-8.95c4.43.22,7.31-2.51,7.36-6.22s-2.84-6.36-7.22-6.46c-4.23-.11-8.48-.16-12.71,0C158.21,14.27,146.93,23.39,142.65,38.84Z" transform="translate(-0.25 -0.75)"/>
    <path d="M147.72,166.89c7.31,7.23,14.14,14,20.93,20.67l-9.72,9.16L138.6,176.05c-3.09,3.21-5.88,6.38-8.95,9.26-14.31,13.42-36.39,7.78-40.82-11-1.41-6-3.8-8.5-9-10.91-11.88-5.48-17.06-15.76-17.88-28.57a11.61,11.61,0,0,0-2.5-6.21c-14-17-6.5-41.37,14.79-47C84,79,92.87,81.49,100.69,88a10.38,10.38,0,0,0,5.57,2.23c16,1,26,8.34,31.17,23.44.78,2.27,2.2,2.31,4,2.45,16.59,1.36,27.18,16.95,21.36,32.44-1.8,4.79-6,8.73-9.29,12.88C151.92,163.4,149.85,164.91,147.72,166.89ZM100.58,154.4c0,5.27-.29,10,0,14.72.68,9.24,11,14.15,18.24,8.48,3.86-3,6.88-7.12,10.61-11.07l-20.54-20.41,9-9,21.24,21.24c2.69-2.89,5.17-5.67,7.77-8.34,4.56-4.7,5.93-9.4,3.73-14.18-2.43-5.29-6.81-7.29-12.48-7.09-3.93.14-7.87,0-12.06,0,0-2.35.06-4.09,0-5.82-.47-11.37-7.49-19.33-18.51-19.52-6.61-.12-11.89-1.3-16.44-6.47A11.55,11.55,0,0,0,79,93.77c-4.46,1.42-9.38,3.25-12.57,6.43-5.29,5.27-4,13.89,2.35,19.68,4.38,4,7.14,8.1,6,14.18a8.1,8.1,0,0,0,.16,2.23c1.14,10.78,8.42,17.61,19.32,18.1C96.17,154.47,98,154.4,100.58,154.4Z" transform="translate(-0.25 -0.75)"/>
    <path d="M205.48,198.78c3.56-14.71,10.43-21.54,22-21.89,12-.37,18.73,5.89,23.52,21.93,17.22,2.76,25.39,10.22,25.18,23s-8.7,20.39-25.43,22.44v25H205.81V244.39c-17.8-3.15-25.48-10.06-25.56-22.7S187.94,201.84,205.48,198.78ZM218.56,212c-5.6,0-10.7-.13-15.79,0-5.73.17-9.87,4.43-9.75,9.71a9.68,9.68,0,0,0,9.81,9.28c17,.07,33.95.15,50.92-.13,2.43,0,5.25-1.6,7.13-3.3a7.86,7.86,0,0,0,1.86-9.3c-1.51-3.57-4.12-6-8.16-6.18-5.45-.17-10.91,0-16.11,0-.35-.8-.53-1-.53-1.25,0-3.62,0-7.24-.11-10.86-.17-6.06-4.13-10.3-9.55-10.34-5.61,0-9.61,4.28-9.71,10.55C218.51,203.94,218.56,207.67,218.56,212Zm.2,44.37h18.87V244.12H218.76Z" transform="translate(-0.25 -0.75)"/>
    <path d="M212.24,39.29h12.82c0,3.68-.17,7.27.1,10.82a4.37,4.37,0,0,0,2.07,3.19c15.24,6.19,21.86,17.62,19.61,34.11q-3.66,26.9-7.27,53.8c-1.59,11.88-9.82,19.43-21.29,19.42-10.7,0-19.19-7.91-20.72-19.34q-3.7-27.64-7.38-55.29c-2-15,5.38-27.42,19.4-32.41,2-.71,2.8-1.6,2.7-3.71C212.13,46.42,212.24,43,212.24,39.29Zm19.49,63.84c.87-6.35,1.68-12.16,2.45-18,.16-1.24.23-2.49.27-3.74a15.78,15.78,0,0,0-19.31-16.2c-6.22,1.32-11.4,6.82-11.28,12.39h14.37V90.48H203.81c1.25,9.65,2.43,18.91,3.65,28.16.93,7.06,1.86,14.11,2.85,21.15.67,4.76,3.49,7.7,7.53,8s7.67-1.79,8.41-5.85c1.56-8.41,2.58-16.93,3.89-25.94H218.85V103.13Z" transform="translate(-0.25 -0.75)"/>
    <path d="M65.06,295.4c-12.81.16-23.2-4.22-29-16.15-5.06-10.46-4.39-21,2.81-30.32,3.94-5.09,7.33-10,7.22-16.73a9.7,9.7,0,0,1,1-3.57c3.19-7.86,11.14-11.52,22-10.19,8.18,1,14.3,6.68,14.89,14.84.41,5.7,2.64,10.14,6.2,14.4a28.69,28.69,0,0,1-15.1,46.6C71.84,295.09,68.4,295.05,65.06,295.4Zm0-12.88,0-.31c1.5,0,3,.08,4.49,0,6.15-.38,10.69-3.37,13.18-9,2.57-5.78,2.36-11.73-1.77-16.61-5.42-6.39-9.3-13.15-9.62-21.76-.12-3.41-3-3.86-5.82-3.77s-6.45-.51-6.7,3.52c-.55,8.82-4.62,15.68-10,22.42-6.89,8.61-2,22,8.44,24.68C59.75,282.34,62.43,282.26,65,282.52Z" transform="translate(-0.25 -0.75)"/>
    <path d="M333.74,122.57c.47,9.94,0,19.63-5.26,28.07a47.25,47.25,0,0,0-7.52,28c.38,8.15-3.33,14.39-10.59,18.46a5,5,0,0,0-2,3.37,36.79,36.79,0,0,0,0,7.85c.31,3.13-1,3.9-3.87,3.7s-5.68,0-9,0c0-4,.18-7.62-.1-11.19a5.29,5.29,0,0,0-2.1-3.68c-6.47-3.73-10.29-9.11-10.5-16.6-.28-10-.92-20,3.08-29.55,7.86-18.7,22.25-27.82,42.23-28.67,1.37,0,2.75,0,4.12,0C332.52,122.34,332.89,122.44,333.74,122.57Zm-13.08,13.52a31.18,31.18,0,0,0-19.1,12.35c-7.5,10.05-6.56,21.62-5.59,33.05.14,1.67,3.06,3.94,5.06,4.45,4.28,1.08,7.4-2.2,7.14-7.63A55.77,55.77,0,0,1,317,144.93C318.54,142.51,319.25,139.58,320.66,136.09Z" transform="translate(-0.25 -0.75)"/>
    <path d="M103.62,238.82c-.11-21.25,16.25-35.81,39.91-33.11a12,12,0,0,1,10.77,10.47c1.87,15.32-2.62,29.66-18,37.35-7.35,3.67-15.24,3.78-23.1,2.74-5.11-.68-9-5.45-9.52-10.71A65.85,65.85,0,0,1,103.62,238.82Zm13,4.83c19.9,2.64,27.58-12.78,24.55-25.15C124,217.09,114.06,227.17,116.66,243.65Z" transform="translate(-0.25 -0.75)"/>
    <path d="M159,103.17c-13.85,0-21.73-6-23.33-17-1.41-9.66,5.73-19.57,15.45-21A47.92,47.92,0,0,1,162.61,65c10.44,1.07,17.81,9.35,17.58,19.28s-7.58,17.63-17.88,18.66C160.82,103.1,159.33,103.15,159,103.17Zm-1.21-12.84c6.45,0,9.57-2,9.62-6.32s-3.17-6.5-9.49-6.5-9.54,2.09-9.6,6.37S151.38,90.32,157.74,90.33Z" transform="translate(-0.25 -0.75)"/>
    <path d="M279.53,128.93c-11.49-.12-18.78-4.72-21.57-13.76a18.85,18.85,0,0,1,16.11-24.49,55.07,55.07,0,0,1,10.43,0,19,19,0,0,1,.6,37.77C283.25,128.67,281.38,128.77,279.53,128.93Zm-1-25.76a25.1,25.1,0,0,0-2.71.16c-3.57.45-5.8,2.8-5.87,6.09s2,5.74,5.62,6.33a25.31,25.31,0,0,0,4.09.23c6.1,0,9.19-2.1,9.29-6.29S285.89,103.18,278.52,103.17Z" transform="translate(-0.25 -0.75)"/>
    <path class="cls-1" d="M97.13,371.71V321.1H288.74v50.61Z" transform="translate(-0.25 -0.75)"/>
    <path class="cls-1" d="M247.41,307.82a21.8,21.8,0,0,1,1.37-1.77q31.82-31.83,63.66-63.61c6.31-6.27,15.22-6.66,21.79-1.47,7.53,6,8.16,16.86,1.25,24.18-4,4.27-8.28,8.33-12.43,12.49-9.28,9.28-18.5,18.63-27.92,27.76a9.29,9.29,0,0,1-5.76,2.48c-12.74.22-25.49.12-38.24.11C250.05,308,249,307.89,247.41,307.82Zm67.41-57.21v12.3h12.33v-12.3Zm-25.53,25.51v12.43h12.25V276.12Z" transform="translate(-0.25 -0.75)"/>
    <path class="cls-1" d="M142.15,282.72c16.62-2.4,26.87,7.83,25,24.71C153.39,310.38,139.41,301.45,142.15,282.72Z" transform="translate(-0.25 -0.75)"/>
    <path class="cls-1" d="M142.65,38.84C146.93,23.39,158.21,14.27,173,13.6c4.23-.2,8.48-.15,12.71,0,4.38.1,7.27,2.79,7.22,6.46s-2.93,6.44-7.36,6.22a56.77,56.77,0,0,0-34.11,9C149.05,36.73,146.1,37.45,142.65,38.84Z" transform="translate(-0.25 -0.75)"/>
    <path class="cls-1" d="M100.58,154.4c-2.55,0-4.41.07-6.27,0-10.9-.49-18.18-7.32-19.32-18.1a8.1,8.1,0,0,1-.16-2.23c1.1-6.08-1.66-10.21-6-14.18-6.4-5.79-7.64-14.41-2.35-19.68,3.19-3.18,8.11-5,12.57-6.43A11.55,11.55,0,0,1,91.14,97c4.55,5.17,9.83,6.35,16.44,6.47,11,.19,18,8.15,18.51,19.52.07,1.73,0,3.47,0,5.82,4.19,0,8.13.11,12.06,0,5.67-.2,10.05,1.8,12.48,7.09,2.2,4.78.83,9.48-3.73,14.18-2.6,2.67-5.08,5.45-7.77,8.34L117.9,137.15l-9,9,20.54,20.41c-3.73,3.95-6.75,8-10.61,11.07-7.23,5.67-17.56.76-18.24-8.48C100.29,164.42,100.58,159.67,100.58,154.4Z" transform="translate(-0.25 -0.75)"/>
    <path class="cls-1" d="M218.56,212c0-4.36-.05-8.09,0-11.83.1-6.27,4.1-10.58,9.71-10.55,5.42,0,9.38,4.28,9.55,10.34.1,3.62.07,7.24.11,10.86,0,.23.18.45.53,1.25,5.2,0,10.66-.13,16.11,0,4,.13,6.65,2.61,8.16,6.18a7.86,7.86,0,0,1-1.86,9.3c-1.88,1.7-4.7,3.26-7.13,3.3-17,.28-33.95.2-50.92.13a9.68,9.68,0,0,1-9.81-9.28c-.12-5.28,4-9.54,9.75-9.71C207.86,211.9,213,212,218.56,212Z" transform="translate(-0.25 -0.75)"/>
    <path class="cls-1" d="M218.76,256.4V244.12h18.87V256.4Z" transform="translate(-0.25 -0.75)"/>
    <path class="cls-1" d="M231.73,103.13H218.85V116h11.29c-1.31,9-2.33,17.53-3.89,25.94-.74,4.06-4.36,6.15-8.41,5.85s-6.86-3.24-7.53-8c-1-7-1.92-14.09-2.85-21.15-1.22-9.25-2.4-18.51-3.65-28.16h14.42V77.62H203.86c-.12-5.57,5.06-11.07,11.28-12.39a15.78,15.78,0,0,1,19.31,16.2c0,1.25-.11,2.5-.27,3.74C233.41,91,232.6,96.78,231.73,103.13Z" transform="translate(-0.25 -0.75)"/>
    <path class="cls-1" d="M65,282.52c-2.6-.26-5.28-.18-7.79-.82C46.76,279.05,41.91,265.63,48.8,257c5.39-6.74,9.46-13.6,10-22.42.25-4,3.86-3.43,6.7-3.52s5.7.36,5.82,3.77c.32,8.61,4.2,15.37,9.62,21.76,4.13,4.88,4.34,10.83,1.77,16.61-2.49,5.6-7,8.59-13.18,9-1.49.1-3,0-4.49,0Z" transform="translate(-0.25 -0.75)"/>
    <path class="cls-1" d="M320.66,136.09c-1.41,3.49-2.12,6.42-3.65,8.84a55.77,55.77,0,0,0-8.84,33.38c.26,5.43-2.86,8.71-7.14,7.63-2-.51-4.92-2.78-5.06-4.45-1-11.43-1.91-23,5.59-33.05A31.18,31.18,0,0,1,320.66,136.09Z" transform="translate(-0.25 -0.75)"/>
    <path class="cls-1" d="M116.66,243.65c-2.6-16.48,7.34-26.56,24.55-25.15C144.24,230.87,136.56,246.29,116.66,243.65Z" transform="translate(-0.25 -0.75)"/>
    <path class="cls-1" d="M157.74,90.33c-6.36,0-9.53-2.16-9.47-6.45s3.23-6.38,9.6-6.37,9.54,2.21,9.49,6.5S164.19,90.33,157.74,90.33Z" transform="translate(-0.25 -0.75)"/>
    <path class="cls-1" d="M278.52,103.17c7.37,0,10.53,2.2,10.42,6.52s-3.19,6.3-9.29,6.29a25.31,25.31,0,0,1-4.09-.23c-3.58-.59-5.68-3-5.62-6.33s2.3-5.64,5.87-6.09A25.1,25.1,0,0,1,278.52,103.17Z" transform="translate(-0.25 -0.75)"/>
    <path d="M314.82,250.61h12.33v12.3H314.82Z" transform="translate(-0.25 -0.75)"/>
    <path d="M289.29,276.12h12.25v12.43H289.29Z" transform="translate(-0.25 -0.75)"/>
</svg>