<svg viewBox="0 0 384.72 383.81" xmlns="http://www.w3.org/2000/svg">
    <path d="M101.91,94.72,88.41,71.18c-3.68-6.43-3.27-8,3-11.58,5.74-3.29,11.46-6.63,17.21-9.9,4.67-2.66,6.83-2.09,9.51,2.53,4.75,8.19,9.45,16.42,13.94,24.21C142.25,73.53,152,70.61,161.85,68c3.6-1,7.4-1.21,11.05-2,.92-.21,2.31-1.3,2.34-2,.22-4.6.11-9.21.11-14.32-3.55,0-6.76.06-10,0-3.88-.08-5.85-1.85-5.91-5.71q-.19-11.82,0-23.63c.07-3.81,2.07-5.82,5.89-5.84q27.56-.12,55.12,0c4,0,6,2,6.08,6q.16,11.63,0,23.25c-.06,4.07-2,5.82-6.12,5.9-3.1.06-6.19,0-9.76,0,0,5.11-.07,9.82.09,14.53a2.64,2.64,0,0,0,1.79,1.78,157,157,0,0,1,41,11.22c4.6-8,9.15-15.85,13.69-23.73,3.56-6.18,5.06-6.6,11.28-3,6,3.41,11.94,6.8,17.85,10.3,3.95,2.33,4.57,4.73,2.29,8.75-4.73,8.35-9.55,16.65-14.39,25.07,43,34.32,64.65,78.62,61.5,133.64-2.32,40.53-19.12,75-49,102.53-61.7,56.84-156.47,53.58-214.78-7.23A153.21,153.21,0,0,1,50.07,162.88C60.69,135.26,78.08,112.67,101.91,94.72Zm91,265.9A142.87,142.87,0,0,0,335.63,217.37c-.16-78.48-64.11-142.3-142.55-142.28-78.71,0-142.77,64-142.72,142.49C50.41,296.69,114.22,360.74,192.89,360.62ZM170.14,38.9H215.8V25.05H170.14ZM98.49,67.67l12.12,21,12.29-7.17-12.09-21Zm176.92,21,12.08-21.06-12.34-7.08-12,21ZM199.87,64.52V49.81H186.13V64.52Z" transform="translate(-0.28 -0.78)"/>
    <path d="M74,217.71C74.05,152,127.61,98.86,193.61,98.94c65,.09,118.45,53.71,118.42,118.88,0,65.57-53.62,119.11-119.09,119C127.26,336.68,73.87,283.25,74,217.71Zm28-58.64c3.78,2.19,7.15,4.09,10.45,6.09,3.46,2.09,4.43,5,2.72,7.79s-4.46,3.21-7.85,1.34-6.91-3.93-10.34-5.89c-6.45,9.47-12.89,33.68-11.68,44.18,3.77,0,7.61-.05,11.45,0,4.23.08,6.41,1.86,6.47,5.14S101,223,96.55,223.06c-3.83.05-7.65,0-11.82,0a105.49,105.49,0,0,0,12.23,45c3.72-2.18,7-4.16,10.39-6.06s6.57-1.47,8.19,1.28.63,5.61-2.87,7.75-6.79,4-10.37,6.15a108.26,108.26,0,0,0,31.92,31.74c2.15-3.7,4.12-7.16,6.18-10.58s4.71-4.28,7.47-2.77,3.47,4.63,1.54,8.1-3.94,6.87-6.06,10.54a106.38,106.38,0,0,0,44.4,12c0-4.3,0-8.16,0-12,0-4,2-6.47,5.11-6.54s5.33,2.45,5.37,6.68c0,3.94,0,7.88,0,12,16.18-1,30.95-4.84,44.74-12.24a8.46,8.46,0,0,0-.41-1.06c-1.69-2.92-3.4-5.82-5.08-8.74-2.42-4.19-2.15-7,.82-8.81s5.73-.68,8.16,3.38l5.84,9.82a108,108,0,0,0,31.69-32c-3.55-2.07-6.78-3.94-10-5.83-3.78-2.22-4.95-5-3.36-7.9s4.61-3.4,8.44-1.25c3.35,1.88,6.69,3.81,10,5.7,6.59-10.08,13-34.37,11.57-44.17-3.65,0-7.37.05-11.08,0-4.48-.08-6.76-1.88-6.78-5.25s2.22-5.18,6.71-5.23c3.81,0,7.61,0,11.75,0a105.65,105.65,0,0,0-12.25-45c-3.87,2.25-7.28,4.32-10.77,6.26-3.26,1.81-6.29,1.18-7.85-1.5s-.67-5.52,2.58-7.51c3.48-2.13,7-4.18,10.74-6.39a109.08,109.08,0,0,0-31.94-31.75c-2.15,3.68-4.12,7.15-6.17,10.57s-4.93,4.51-7.74,2.83-3.24-4.66-1.27-8.18,3.95-6.85,6.08-10.54a106.8,106.8,0,0,0-44.44-11.89c0,4.2,0,7.93,0,11.67,0,4.33-1.92,6.83-5.17,6.88s-5.29-2.49-5.32-6.73c0-3.93,0-7.86,0-11.91a108,108,0,0,0-44.9,12.29c2.07,3.58,4.08,7,6,10.45,2,3.61,1.57,6.44-1.27,8.13s-5.63.68-7.76-2.84-4-6.83-6.12-10.41A109.15,109.15,0,0,0,102,159.07Z" transform="translate(-0.28 -0.78)"/>
    <path d="M216.59,223.08c-.46,1.24-.82,2.29-1.22,3.32-4.12,10.61-14.5,16.62-26.08,15.11-10.26-1.34-18.68-10-20.13-20.83a23.65,23.65,0,0,1,15.13-25c2.94-1.08,3.55-2.52,3.52-5.36-.13-15.12-.17-30.24.08-45.35,0-2,1.6-4.39,3.2-5.66,1-.76,4-.31,5,.69a8.64,8.64,0,0,1,2.08,5.6q.24,22.68,0,45.35c0,2.49.6,3.66,3.1,4.52a22.05,22.05,0,0,1,14.06,14.06c.9,2.56,2.17,3.08,4.6,3.07,14.62-.1,29.23-.06,43.85,0a23.35,23.35,0,0,1,4.1.25,5.1,5.1,0,0,1-.3,10.08,43.39,43.39,0,0,1-5.23.15Zm-23.5,8.19a13.41,13.41,0,1,0-13.56-13.5A13.45,13.45,0,0,0,193.09,231.27Z" transform="translate(-0.28 -0.78)"/>
</svg>