<svg viewBox="0 0 410.4 410.4" xmlns="http://www.w3.org/2000/svg">
    <path d="M410.8,193.8c-3.17,12-11.67,17-23.32,19.21-33,6.16-65.86,12.81-98.75,19.46-2.05.41-4.06,2.11-5.61,3.69-6.53,6.6-12.9,13.36-19.25,20.14-.87.93-1.84,2.34-1.78,3.48.5,9.51,1.23,19,1.91,28.73,3-3.26,6.33-7.17,10-10.64,2-1.91,4.61-3.8,7.23-4.41,4.46-1,8.54,2.61,9.54,7.62,2.45,12.2-1.32,22.86-8.19,32.74-.72,1-1.47,2.06-2.72,3.8h5q26.4,0,52.8,0c12.14,0,18.19,6,18.25,18.13.05,9.86.07,19.73,0,29.6-.08,11.73-6.38,17.93-18.14,18-5.16,0-10.32,0-15.91,0,0,3.95,0,7.51,0,11.08-.07,5.88-2.17,8.12-7.9,8.12q-108,0-216,0c-5.58,0-7.75-2.22-7.88-7.74-.05-1.87,0-3.74,0-5.6v-5.88H85c-3.87,0-7.74,0-11.6,0-10.8-.14-17.16-6.34-17.31-17.17-.14-10.4-.12-20.8,0-31.2.13-11.14,6.31-17.28,17.45-17.32,18.4-.07,36.79,0,55.19,0H133c-1.92-8.65-3.8-17.11-5.8-26.08-6.9,1.37-14.45,2.68-21.92,4.36-18.84,4.23-37.34,3.91-55.17-4.16-26.2-11.85-42.32-32-48.52-60C0,224.43,4.05,217.13,11.22,215.5c13.49-3.06,27.11-5.61,40.71-8.17,4-.76,7,1.37,7.53,4.74s-1.71,6.21-6,7.08c-11.35,2.29-22.72,4.5-34.09,6.7-6.6,1.28-6.66,1.32-5,7.67,9,35.41,44.8,58.5,80.73,52q15.72-2.85,31.34-6.2c1.39-.3,2.85-2,3.55-3.36.93-1.85,1.1-4.09,1.7-6.13,1.17-4,3.93-5.91,7.29-5.11,3.57.86,4.94,3.92,4.32,8.13-1.13,7.6-2.94,15.3-2.52,22.85.36,6.41,3.29,12.72,5.49,18.93.44,1.23,2.74,2.57,4.19,2.58q54.19.21,108.39.08a6.67,6.67,0,0,0,3.44-.68c9.22-6,15.31-14.16,17.2-25.56-5.25,4.2-10.09,8.27-15.15,12a82.86,82.86,0,0,1-8.57,5.12c-2.64,1.5-5.35,1.84-7.78-.34s-2.35-4.86-1.19-7.7c6.8-16.6,6.43-33.26,0-49.82-1.6-4.12-4-7.92-5.78-11.33-6.55,10.33-12.28,20.76-19.4,30.13-5.5,7.25-12.69,13.23-19.22,19.67-2.33,2.3-5.18,2.84-8,.86s-2.59-4.7-2-7.85c1.17-5.8,1.8-11.71,2.49-17.6.14-1.2-.44-2.48-.76-4.15-2.85,3.4-5.19,6.44-7.78,9.25-5.06,5.51-8.71,5.12-12.5-1.21q-7.51-12.49-15-25c-.12-.2-.39-.3-.93-.71-1.62,2.75-3.18,5.49-4.83,8.16-2.32,3.74-5.6,4.87-8.7,3.1s-3.8-5.24-1.68-9c2.34-4.19,4.75-8.34,7.27-12.42,4.35-7,12-7.13,16.35-.09,4.95,8,9.69,16.17,15,25.08,1.79-3.21,3.33-5.75,4.65-8.4,1.82-3.67,4.58-6,8.74-5.88,4.35.13,7.12,2.7,8.46,6.75,1.46,4.4,2.82,8.83,4.3,13.51a6.61,6.61,0,0,0,6.6-3.52c4.21-7.23,8.49-14.43,12.72-21.65,1.68-2.86,3-6,5-8.56,4.43-5.43,9.78-6,14.84-1.1,3.2,3.07,5.52,7.09,8,10.83a54.18,54.18,0,0,1,3.12,6.45,66.25,66.25,0,0,0,18.39-21.13c8.22-14.58,10.71-30.19,8.2-46.71-.52-3.44-2.06-3.92-5.21-3.29Q211,188,142.83,201.45l-61.9,12.26a18.78,18.78,0,0,1-3.16.44c-3.38.11-5.75-1.38-6.32-4.79s.87-5.92,4.22-6.71c6.35-1.49,12.76-2.71,19.16-4q90.3-17.89,180.62-35.69c3.55-.7,7.54-1,11-.15,6.42,1.66,9.06,6.95,9.89,13.19.4,3,.71,6.06,1.12,9.55l29.45-5.78c2.62-.52,5.22-1.08,7.85-1.49,3.89-.61,6.68,1.06,7.42,4.32.79,3.53-1,6.43-5,7.29-11.72,2.48-23.46,4.9-35.25,7-3.71.66-5.3,2-5.8,5.9-.7,5.46-2.42,10.79-3.79,16.58,11.31-2.21,22.37-4.35,33.43-6.54q31.72-6.28,63.45-12.62c6.55-1.31,10.5-6.2,9.46-11.66-1.18-6.21-6.34-9.4-13.31-8.09s-13.85,2.73-20.77,4.11c-.65.13-1.3.3-1.95.39-4.73.66-7.72-1-8.43-4.61s1.72-6.34,6.3-7.27c7.7-1.55,15.36-3.41,23.13-4.43a31.22,31.22,0,0,1,12.55.87c8.3,2.45,12.39,9.11,14.65,17.06Zm-211.09,136c-1-.07-1.78-.18-2.56-.18q-61.76,0-123.51,0c-4.63,0-5.51.94-5.53,5.77,0,9.6,0,19.19,0,28.78,0,6.4.72,7.11,7.11,7.12h124.5Zm12.57,41.25c1,.1,1.81.23,2.58.23q61.75,0,123.51,0c4.29,0,5.49-1.21,5.51-5.49.07-9.86,0-19.72,0-29.57,0-6-.67-6.6-6.73-6.61H212.28Zm97.35,19.31v-6.68H102.44v6.68Z" transform="translate(-0.4 -0.2)"/>
    <path d="M66.89,49c3.69,5.16,7.26,10.63,11.37,15.66,1.23,1.52,3.92,1.88,6,2.71,27,11,48.2,28.17,58.79,56.12a44.38,44.38,0,0,1-1.92,36.84c-8.1,16-26.52,22.64-45,16.14s-30.35-19.68-37.93-37.17c-6.3-14.56-10.06-29.7-9.52-45.73a7.3,7.3,0,0,0-1.27-4c-3.6-5.28-7.44-10.4-11-15.68-1.19-1.74-2.2-1.92-4.25-1.28-9.49,3-18,1-24.76-6.37s-8.07-15.88-4-24.86S15,27.86,25,27.66c1.1,0,2.87-1,3.17-1.9C31.56,15.43,38.83,9.88,49.39,9.23,59,8.63,66.52,13,70.89,21.68c4.83,9.58,3.14,18.57-3.69,26.7A2.93,2.93,0,0,0,66.89,49ZM60.76,95.59c.84,20.8,5.74,40.27,19.58,56.5a41.5,41.5,0,0,0,23.58,14.08c14.66,3,26.86-5,29.28-19.23a42.43,42.43,0,0,0-2.64-22.7c-4.07-10.59-11.34-18.89-19.57-26.36-9.12-8.27-19-15.46-30.93-19.25-11.17-3.54-18.06,1-19,12.57C60.93,92.66,60.85,94.13,60.76,95.59Zm3.48-29.22a4.67,4.67,0,0,0-.36-.77C61,61.46,58,57.34,55.12,53.21c-4-5.62-3.68-7.65,1.7-12C61.45,37.49,62.76,32,60.17,27a11.12,11.12,0,0,0-12.52-5.49c-5.49,1.5-9,6.06-8,12.06,1.14,6.76-4.38,10.82-10.35,7.45-5.19-2.94-11-1-14.06,3.53a11,11,0,0,0,1.24,14C20.35,62.54,26,63,31,59.76c5.46-3.53,7.72-3.11,11.56,2.23,3.39,4.73,6.76,9.48,10.25,14.38a67.85,67.85,0,0,1,5-5.43A77.39,77.39,0,0,1,64.24,66.37Z" transform="translate(-0.4 -0.2)"/>
    <path d="M198.39,154.73c-19.73-.06-37.13-16.33-37.95-35.49-.92-21.15,13.8-38.85,34-40.75A8.19,8.19,0,0,0,200.76,75c9.32-12.08,27-15.24,39.83-7,2.84,1.83,4.44,1.55,6.77-.6,4.5-4.16,9.27-8,14-11.92,3.39-2.78,6.93-2.7,9.22,0s1.87,6.16-1.48,9.08q-7.38,6.45-15,12.65C252.45,78.67,252,79.88,253,82c6.92,15-.1,33-14.07,40a7.16,7.16,0,0,0-3.06,4.18A38.27,38.27,0,0,1,198.39,154.73Zm36-76.39c-9.56-5.31-20.53-2.78-25.57,6.08-2.56,4.5-5.69,5.81-10.64,5.78-13.66-.08-25.14,11.32-25.76,25s9.68,25.91,22.85,27.37c14.26,1.58,27-7.49,29.18-21.26.8-5.09,3-7.83,7.88-9.7,9.52-3.64,14-15.07,9.59-23.79-1.36,1.12-2.69,2.2-4,3.3-10.8,9.1-21.55,18.25-32.4,27.29-3.07,2.55-6.24,2.31-8.52-.21s-2-6.09.89-8.84c1.35-1.28,2.82-2.44,4.24-3.64Z" transform="translate(-0.4 -0.2)"/>
    <path d="M35.59,198.77a24.81,24.81,0,0,1-24.8-25,25.06,25.06,0,0,1,24.73-24.76,25,25,0,0,1,25,24.89A24.77,24.77,0,0,1,35.59,198.77ZM48.47,174a12.84,12.84,0,1,0-25.67.19A12.84,12.84,0,0,0,48.47,174Z" transform="translate(-0.4 -0.2)"/>
    <path d="M174.13,40.81A24.86,24.86,0,1,1,149,16.15,24.85,24.85,0,0,1,174.13,40.81ZM149.5,28.15a12.83,12.83,0,1,0,12.6,13.13A12.71,12.71,0,0,0,149.5,28.15Z" transform="translate(-0.4 -0.2)"/>
</svg>