<svg viewBox="0 0 410.4 410.4" xmlns="http://www.w3.org/2000/svg">
    <defs>
        <style>.cls-1{fill:#fff;}</style>
    </defs>
    <path class="cls-1" d="M410.8,193.8V410.6H.4V.2H410.8V186.6c-2.26-7.95-6.35-14.61-14.65-17.06a31.22,31.22,0,0,0-12.55-.87c-7.77,1-15.43,2.88-23.13,4.43-4.58.93-7,3.77-6.3,7.27s3.7,5.27,8.43,4.61c.65-.09,1.3-.26,1.95-.39,6.92-1.38,13.84-2.8,20.77-4.11s12.13,1.88,13.31,8.09c1,5.46-2.91,10.35-9.46,11.66q-31.73,6.33-63.45,12.62c-11.06,2.19-22.12,4.33-33.43,6.54,1.37-5.79,3.09-11.12,3.79-16.58.5-3.92,2.09-5.24,5.8-5.9,11.79-2.1,23.53-4.52,35.25-7,4-.86,5.8-3.76,5-7.29-.74-3.26-3.53-4.93-7.42-4.32-2.63.41-5.23,1-7.85,1.49l-29.45,5.78c-.41-3.49-.72-6.53-1.12-9.55-.83-6.24-3.47-11.53-9.89-13.19-3.42-.89-7.41-.55-11,.15Q185.12,180.7,94.83,198.67c-6.4,1.27-12.81,2.49-19.16,4-3.35.79-4.79,3.37-4.22,6.71s2.94,4.9,6.32,4.79a18.78,18.78,0,0,0,3.16-.44l61.9-12.26q68.17-13.5,136.34-27c3.15-.63,4.69-.15,5.21,3.29,2.51,16.52,0,32.13-8.2,46.71a66.25,66.25,0,0,1-18.39,21.13,54.18,54.18,0,0,0-3.12-6.45c-2.5-3.74-4.82-7.76-8-10.83-5.06-4.87-10.41-4.33-14.84,1.1-2.06,2.54-3.35,5.7-5,8.56-4.23,7.22-8.51,14.42-12.72,21.65a6.61,6.61,0,0,1-6.6,3.52c-1.48-4.68-2.84-9.11-4.3-13.51-1.34-4.05-4.11-6.62-8.46-6.75-4.16-.13-6.92,2.21-8.74,5.88-1.32,2.65-2.86,5.19-4.65,8.4-5.32-8.91-10.06-17.06-15-25.08-4.34-7-12-7-16.35.09-2.52,4.08-4.93,8.23-7.27,12.42-2.12,3.8-1.41,7.28,1.68,9s6.38.64,8.7-3.1c1.65-2.67,3.21-5.41,4.83-8.16.54.41.81.51.93.71q7.5,12.51,15,25c3.79,6.33,7.44,6.72,12.5,1.21,2.59-2.81,4.93-5.85,7.78-9.25.32,1.67.9,3,.76,4.15-.69,5.89-1.32,11.8-2.49,17.6-.63,3.15-.88,5.85,2,7.85s5.66,1.44,8-.86c6.53-6.44,13.72-12.42,19.22-19.67,7.12-9.37,12.85-19.8,19.4-30.13,1.76,3.41,4.18,7.21,5.78,11.33,6.43,16.56,6.8,33.22,0,49.82-1.16,2.84-1.23,5.52,1.19,7.7s5.14,1.84,7.78.34a82.86,82.86,0,0,0,8.57-5.12c5.06-3.76,9.9-7.83,15.15-12-1.89,11.4-8,19.55-17.2,25.56a6.67,6.67,0,0,1-3.44.68q-54.19.06-108.39-.08c-1.45,0-3.75-1.35-4.19-2.58-2.2-6.21-5.13-12.52-5.49-18.93-.42-7.55,1.39-15.25,2.52-22.85.62-4.21-.75-7.27-4.32-8.13-3.36-.8-6.12,1.1-7.29,5.11-.6,2-.77,4.28-1.7,6.13-.7,1.4-2.16,3.06-3.55,3.36q-15.61,3.38-31.34,6.2c-35.93,6.55-71.74-16.54-80.73-52-1.61-6.35-1.55-6.39,5-7.67,11.37-2.2,22.74-4.41,34.09-6.7,4.33-.87,6.62-3.71,6-7.08s-3.49-5.5-7.53-4.74c-13.6,2.56-27.22,5.11-40.71,8.17C4.05,217.13,0,224.43,1.54,231.66c6.2,28,22.32,48.2,48.52,60,17.83,8.07,36.33,8.39,55.17,4.16,7.47-1.68,15-3,21.92-4.36,2,9,3.88,17.43,5.8,26.08h-4.24c-18.4,0-36.79,0-55.19,0-11.14,0-17.32,6.18-17.45,17.32-.11,10.4-.13,20.8,0,31.2.15,10.83,6.51,17,17.31,17.17,3.86.05,7.73,0,11.6,0h5.12v5.88c0,1.86,0,3.73,0,5.6.13,5.52,2.3,7.74,7.88,7.74q108,0,216,0c5.73,0,7.83-2.24,7.9-8.12,0-3.57,0-7.13,0-11.08,5.59,0,10.75,0,15.91,0,11.76,0,18.06-6.24,18.14-18,.07-9.87.05-19.74,0-29.6-.06-12.11-6.11-18.11-18.25-18.13q-26.4,0-52.8,0h-5c1.25-1.74,2-2.76,2.72-3.8,6.87-9.88,10.64-20.54,8.19-32.74-1-5-5.08-8.64-9.54-7.62-2.62.61-5.19,2.5-7.23,4.41-3.71,3.47-7,7.38-10,10.64-.68-9.72-1.41-19.22-1.91-28.73-.06-1.14.91-2.55,1.78-3.48,6.35-6.78,12.72-13.54,19.25-20.14,1.55-1.58,3.56-3.28,5.61-3.69,32.89-6.65,65.77-13.3,98.75-19.46C399.13,210.83,407.63,205.8,410.8,193.8ZM66.89,49a2.93,2.93,0,0,1,.31-.65c6.83-8.13,8.52-17.12,3.69-26.7C66.52,13,59,8.63,49.39,9.23c-10.56.65-17.83,6.2-21.23,16.53-.3.91-2.07,1.88-3.17,1.9-10,.2-17.47,4.66-21.62,13.73S.73,59,7.34,66.25,22.61,75.6,32.1,72.62c2-.64,3.06-.46,4.25,1.28,3.6,5.28,7.44,10.4,11,15.68a7.3,7.3,0,0,1,1.27,4c-.54,16,3.22,31.17,9.52,45.73,7.58,17.49,19.6,30.71,37.93,37.17s36.88-.17,45-16.14A44.38,44.38,0,0,0,143,123.52c-10.59-27.95-31.8-45.14-58.79-56.12-2-.83-4.73-1.19-6-2.71C74.15,59.66,70.58,54.19,66.89,49Zm131.5,105.7a38.27,38.27,0,0,0,37.44-28.56,7.16,7.16,0,0,1,3.06-4.18c14-7,21-25,14.07-40-1-2.13-.51-3.34,1.19-4.72q7.57-6.2,15-12.65c3.35-2.92,3.81-6.33,1.48-9.08s-5.83-2.8-9.22,0c-4.74,3.89-9.51,7.76-14,11.92-2.33,2.15-3.93,2.43-6.77.6-12.81-8.28-30.51-5.12-39.83,7a8.19,8.19,0,0,1-6.28,3.47c-20.24,1.9-35,19.6-34,40.75C161.26,138.4,178.66,154.67,198.39,154.73Zm-162.8,44a24.77,24.77,0,0,0,24.9-24.83,25,25,0,0,0-25-24.89,25.06,25.06,0,0,0-24.73,24.76A24.81,24.81,0,0,0,35.59,198.77Zm138.54-158a24.86,24.86,0,1,0-24.75,25A24.78,24.78,0,0,0,174.13,40.81Z" transform="translate(-0.4 -0.2)"/>
    <path d="M410.8,193.8c-3.17,12-11.67,17-23.32,19.21-33,6.16-65.86,12.81-98.75,19.46-2.05.41-4.06,2.11-5.61,3.69-6.53,6.6-12.9,13.36-19.25,20.14-.87.93-1.84,2.34-1.78,3.48.5,9.51,1.23,19,1.91,28.73,3-3.26,6.33-7.17,10-10.64,2-1.91,4.61-3.8,7.23-4.41,4.46-1,8.54,2.61,9.54,7.62,2.45,12.2-1.32,22.86-8.19,32.74-.72,1-1.47,2.06-2.72,3.8h5q26.4,0,52.8,0c12.14,0,18.19,6,18.25,18.13.05,9.86.07,19.73,0,29.6-.08,11.73-6.38,17.93-18.14,18-5.16,0-10.32,0-15.91,0,0,3.95,0,7.51,0,11.08-.07,5.88-2.17,8.12-7.9,8.12q-108,0-216,0c-5.58,0-7.75-2.22-7.88-7.74-.05-1.87,0-3.74,0-5.6v-5.88H85c-3.87,0-7.74,0-11.6,0-10.8-.14-17.16-6.34-17.31-17.17-.14-10.4-.12-20.8,0-31.2.13-11.14,6.31-17.28,17.45-17.32,18.4-.07,36.79,0,55.19,0H133c-1.92-8.65-3.8-17.11-5.8-26.08-6.9,1.37-14.45,2.68-21.92,4.36-18.84,4.23-37.34,3.91-55.17-4.16-26.2-11.85-42.32-32-48.52-60C0,224.43,4.05,217.13,11.22,215.5c13.49-3.06,27.11-5.61,40.71-8.17,4-.76,7,1.37,7.53,4.74s-1.71,6.21-6,7.08c-11.35,2.29-22.72,4.5-34.09,6.7-6.6,1.28-6.66,1.32-5,7.67,9,35.41,44.8,58.5,80.73,52q15.72-2.85,31.34-6.2c1.39-.3,2.85-2,3.55-3.36.93-1.85,1.1-4.09,1.7-6.13,1.17-4,3.93-5.91,7.29-5.11,3.57.86,4.94,3.92,4.32,8.13-1.13,7.6-2.94,15.3-2.52,22.85.36,6.41,3.29,12.72,5.49,18.93.44,1.23,2.74,2.57,4.19,2.58q54.19.21,108.39.08a6.67,6.67,0,0,0,3.44-.68c9.22-6,15.31-14.16,17.2-25.56-5.25,4.2-10.09,8.27-15.15,12a82.86,82.86,0,0,1-8.57,5.12c-2.64,1.5-5.35,1.84-7.78-.34s-2.35-4.86-1.19-7.7c6.8-16.6,6.43-33.26,0-49.82-1.6-4.12-4-7.92-5.78-11.33-6.55,10.33-12.28,20.76-19.4,30.13-5.5,7.25-12.69,13.23-19.22,19.67-2.33,2.3-5.18,2.84-8,.86s-2.59-4.7-2-7.85c1.17-5.8,1.8-11.71,2.49-17.6.14-1.2-.44-2.48-.76-4.15-2.85,3.4-5.19,6.44-7.78,9.25-5.06,5.51-8.71,5.12-12.5-1.21q-7.51-12.49-15-25c-.12-.2-.39-.3-.93-.71-1.62,2.75-3.18,5.49-4.83,8.16-2.32,3.74-5.6,4.87-8.7,3.1s-3.8-5.24-1.68-9c2.34-4.19,4.75-8.34,7.27-12.42,4.35-7,12-7.13,16.35-.09,4.95,8,9.69,16.17,15,25.08,1.79-3.21,3.33-5.75,4.65-8.4,1.82-3.67,4.58-6,8.74-5.88,4.35.13,7.12,2.7,8.46,6.75,1.46,4.4,2.82,8.83,4.3,13.51a6.61,6.61,0,0,0,6.6-3.52c4.21-7.23,8.49-14.43,12.72-21.65,1.68-2.86,3-6,5-8.56,4.43-5.43,9.78-6,14.84-1.1,3.2,3.07,5.52,7.09,8,10.83a54.18,54.18,0,0,1,3.12,6.45,66.25,66.25,0,0,0,18.39-21.13c8.22-14.58,10.71-30.19,8.2-46.71-.52-3.44-2.06-3.92-5.21-3.29Q211,188,142.83,201.45l-61.9,12.26a18.78,18.78,0,0,1-3.16.44c-3.38.11-5.75-1.38-6.32-4.79s.87-5.92,4.22-6.71c6.35-1.49,12.76-2.71,19.16-4q90.3-17.89,180.62-35.69c3.55-.7,7.54-1,11-.15,6.42,1.66,9.06,6.95,9.89,13.19.4,3,.71,6.06,1.12,9.55l29.45-5.78c2.62-.52,5.22-1.08,7.85-1.49,3.89-.61,6.68,1.06,7.42,4.32.79,3.53-1,6.43-5,7.29-11.72,2.48-23.46,4.9-35.25,7-3.71.66-5.3,2-5.8,5.9-.7,5.46-2.42,10.79-3.79,16.58,11.31-2.21,22.37-4.35,33.43-6.54q31.72-6.28,63.45-12.62c6.55-1.31,10.5-6.2,9.46-11.66-1.18-6.21-6.34-9.4-13.31-8.09s-13.85,2.73-20.77,4.11c-.65.13-1.3.3-1.95.39-4.73.66-7.72-1-8.43-4.61s1.72-6.34,6.3-7.27c7.7-1.55,15.36-3.41,23.13-4.43a31.22,31.22,0,0,1,12.55.87c8.3,2.45,12.39,9.11,14.65,17.06Zm-211.09,136c-1-.07-1.78-.18-2.56-.18q-61.76,0-123.51,0c-4.63,0-5.51.94-5.53,5.77,0,9.6,0,19.19,0,28.78,0,6.4.72,7.11,7.11,7.12h124.5Zm12.57,41.25c1,.1,1.81.23,2.58.23q61.75,0,123.51,0c4.29,0,5.49-1.21,5.51-5.49.07-9.86,0-19.72,0-29.57,0-6-.67-6.6-6.73-6.61H212.28Zm97.35,19.31v-6.68H102.44v6.68Z" transform="translate(-0.4 -0.2)"/>
    <path d="M66.89,49c3.69,5.16,7.26,10.63,11.37,15.66,1.23,1.52,3.92,1.88,6,2.71,27,11,48.2,28.17,58.79,56.12a44.38,44.38,0,0,1-1.92,36.84c-8.1,16-26.52,22.64-45,16.14s-30.35-19.68-37.93-37.17c-6.3-14.56-10.06-29.7-9.52-45.73a7.3,7.3,0,0,0-1.27-4c-3.6-5.28-7.44-10.4-11-15.68-1.19-1.74-2.2-1.92-4.25-1.28-9.49,3-18,1-24.76-6.37s-8.07-15.88-4-24.86S15,27.86,25,27.66c1.1,0,2.87-1,3.17-1.9C31.56,15.43,38.83,9.88,49.39,9.23,59,8.63,66.52,13,70.89,21.68c4.83,9.58,3.14,18.57-3.69,26.7A2.93,2.93,0,0,0,66.89,49ZM60.76,95.59c.84,20.8,5.74,40.27,19.58,56.5a41.5,41.5,0,0,0,23.58,14.08c14.66,3,26.86-5,29.28-19.23a42.43,42.43,0,0,0-2.64-22.7c-4.07-10.59-11.34-18.89-19.57-26.36-9.12-8.27-19-15.46-30.93-19.25-11.17-3.54-18.06,1-19,12.57C60.93,92.66,60.85,94.13,60.76,95.59Zm3.48-29.22a4.67,4.67,0,0,0-.36-.77C61,61.46,58,57.34,55.12,53.21c-4-5.62-3.68-7.65,1.7-12C61.45,37.49,62.76,32,60.17,27a11.12,11.12,0,0,0-12.52-5.49c-5.49,1.5-9,6.06-8,12.06,1.14,6.76-4.38,10.82-10.35,7.45-5.19-2.94-11-1-14.06,3.53a11,11,0,0,0,1.24,14C20.35,62.54,26,63,31,59.76c5.46-3.53,7.72-3.11,11.56,2.23,3.39,4.73,6.76,9.48,10.25,14.38a67.85,67.85,0,0,1,5-5.43A77.39,77.39,0,0,1,64.24,66.37Z" transform="translate(-0.4 -0.2)"/>
    <path d="M198.39,154.73c-19.73-.06-37.13-16.33-37.95-35.49-.92-21.15,13.8-38.85,34-40.75A8.19,8.19,0,0,0,200.76,75c9.32-12.08,27-15.24,39.83-7,2.84,1.83,4.44,1.55,6.77-.6,4.5-4.16,9.27-8,14-11.92,3.39-2.78,6.93-2.7,9.22,0s1.87,6.16-1.48,9.08q-7.38,6.45-15,12.65C252.45,78.67,252,79.88,253,82c6.92,15-.1,33-14.07,40a7.16,7.16,0,0,0-3.06,4.18A38.27,38.27,0,0,1,198.39,154.73Zm36-76.39c-9.56-5.31-20.53-2.78-25.57,6.08-2.56,4.5-5.69,5.81-10.64,5.78-13.66-.08-25.14,11.32-25.76,25s9.68,25.91,22.85,27.37c14.26,1.58,27-7.49,29.18-21.26.8-5.09,3-7.83,7.88-9.7,9.52-3.64,14-15.07,9.59-23.79-1.36,1.12-2.69,2.2-4,3.3-10.8,9.1-21.55,18.25-32.4,27.29-3.07,2.55-6.24,2.31-8.52-.21s-2-6.09.89-8.84c1.35-1.28,2.82-2.44,4.24-3.64Z" transform="translate(-0.4 -0.2)"/>
    <path d="M35.59,198.77a24.81,24.81,0,0,1-24.8-25,25.06,25.06,0,0,1,24.73-24.76,25,25,0,0,1,25,24.89A24.77,24.77,0,0,1,35.59,198.77ZM48.47,174a12.84,12.84,0,1,0-25.67.19A12.84,12.84,0,0,0,48.47,174Z" transform="translate(-0.4 -0.2)"/>
    <path d="M174.13,40.81A24.86,24.86,0,1,1,149,16.15,24.85,24.85,0,0,1,174.13,40.81ZM149.5,28.15a12.83,12.83,0,1,0,12.6,13.13A12.71,12.71,0,0,0,149.5,28.15Z" transform="translate(-0.4 -0.2)"/>
    <path class="cls-1" d="M199.71,329.81v41.5H75.21c-6.39,0-7.11-.72-7.11-7.12,0-9.59,0-19.18,0-28.78,0-4.83.9-5.77,5.53-5.77q61.76,0,123.51,0C197.93,329.63,198.71,329.74,199.71,329.81Z" transform="translate(-0.4 -0.2)"/>
    <path class="cls-1" d="M212.28,371.06V329.62H337.17c6.06,0,6.72.65,6.73,6.61,0,9.85.05,19.71,0,29.57,0,4.28-1.22,5.49-5.51,5.49q-61.75,0-123.51,0C214.09,371.29,213.32,371.16,212.28,371.06Z" transform="translate(-0.4 -0.2)"/>
    <path class="cls-1" d="M309.63,390.37H102.44v-6.68H309.63Z" transform="translate(-0.4 -0.2)"/>
    <path class="cls-1" d="M60.76,95.59c.09-1.46.17-2.93.29-4.39,1-11.59,7.84-16.11,19-12.57,12,3.79,21.81,11,30.93,19.25,8.23,7.47,15.5,15.77,19.57,26.36a42.43,42.43,0,0,1,2.64,22.7c-2.42,14.24-14.62,22.26-29.28,19.23a41.5,41.5,0,0,1-23.58-14.08C66.5,135.86,61.6,116.39,60.76,95.59Z" transform="translate(-0.4 -0.2)"/>
    <path class="cls-1" d="M64.24,66.37a77.39,77.39,0,0,0-6.37,4.57,67.85,67.85,0,0,0-5,5.43C49.34,71.47,46,66.72,42.58,62c-3.84-5.34-6.1-5.76-11.56-2.23C26,63,20.35,62.54,16.45,58.53a11,11,0,0,1-1.24-14c3.09-4.58,8.87-6.47,14.06-3.53,6,3.37,11.49-.69,10.35-7.45-1-6,2.54-10.56,8-12.06A11.12,11.12,0,0,1,60.17,27c2.59,4.94,1.28,10.46-3.35,14.19-5.38,4.34-5.67,6.37-1.7,12C58,57.34,61,61.46,63.88,65.6A4.67,4.67,0,0,1,64.24,66.37Z" transform="translate(-0.4 -0.2)"/>
    <path class="cls-1" d="M234.38,78.34l-32.25,27.37c-1.42,1.2-2.89,2.36-4.24,3.64-2.88,2.75-3.2,6.28-.89,8.84s5.45,2.76,8.52.21c10.85-9,21.6-18.19,32.4-27.29,1.3-1.1,2.63-2.18,4-3.3,4.36,8.72-.07,20.15-9.59,23.79-4.86,1.87-7.08,4.61-7.88,9.7-2.16,13.77-14.92,22.84-29.18,21.26-13.17-1.46-23.46-13.79-22.85-27.37s12.1-25.07,25.76-25c5,0,8.08-1.28,10.64-5.78C213.85,75.56,224.82,73,234.38,78.34Z" transform="translate(-0.4 -0.2)"/>
    <path class="cls-1" d="M48.47,174a12.84,12.84,0,0,1-25.67.19A12.84,12.84,0,1,1,48.47,174Z" transform="translate(-0.4 -0.2)"/>
    <path class="cls-1" d="M149.5,28.15a12.83,12.83,0,0,1-.2,25.66,12.83,12.83,0,1,1,.2-25.66Z" transform="translate(-0.4 -0.2)"/>
</svg>